<?xml version="1.0" encoding="UTF-8" standalone="no"?>
<!DOCTYPE svg PUBLIC "-//W3C//DTD SVG 1.1//EN"
 "http://www.w3.org/Graphics/SVG/1.1/DTD/svg11.dtd">
<!-- Generated by graphviz version 2.43.0 (0)
 -->
<!-- Title: ERD Pages: 1 -->
<svg width="1163pt" height="1450pt"
 viewBox="0.00 0.00 1162.60 1449.60" xmlns="http://www.w3.org/2000/svg" xmlns:xlink="http://www.w3.org/1999/xlink">
<g id="graph0" class="graph" transform="scale(1 1) rotate(0) translate(28.8 1420.8)">
<title>ERD</title>
<polygon fill="white" stroke="transparent" points="-28.8,28.8 -28.8,-1420.8 1133.8,-1420.8 1133.8,28.8 -28.8,28.8"/>
<!-- Users -->
<g id="node1" class="node">
<title>Users</title>
<polygon fill="white" stroke="transparent" points="283,-716 283,-851 443,-851 443,-716 283,-716"/>
<polygon fill="#123a5f" stroke="transparent" points="283,-823.5 283,-850.5 443,-850.5 443,-823.5 283,-823.5"/>
<polygon fill="none" stroke="black" points="283,-823.5 283,-850.5 443,-850.5 443,-823.5 283,-823.5"/>
<text text-anchor="start" x="340.5" y="-834.3" font-family="Helvetica,sans-Serif" font-weight="bold" font-size="14.00" fill="white">Users</text>
<polygon fill="none" stroke="black" points="283,-796.5 283,-823.5 443,-823.5 443,-796.5 283,-796.5"/>
<text text-anchor="start" x="289" y="-807.3" font-family="Helvetica,sans-Serif" font-weight="bold" font-size="14.00">UserID</text>
<text text-anchor="start" x="342" y="-807.3" font-family="Helvetica,sans-Serif" font-size="14.00"> &#160;PK</text>
<polygon fill="none" stroke="black" points="283,-769.5 283,-796.5 443,-796.5 443,-769.5 283,-769.5"/>
<text text-anchor="start" x="289" y="-779.3" font-family="Helvetica,sans-Serif" font-size="14.00">FirstName, LastName</text>
<polygon fill="none" stroke="black" points="283,-742.5 283,-769.5 443,-769.5 443,-742.5 283,-742.5"/>
<text text-anchor="start" x="289" y="-752.3" font-family="Helvetica,sans-Serif" font-size="14.00">Email, PhoneNumber</text>
<polygon fill="none" stroke="black" points="283,-715.5 283,-742.5 443,-742.5 443,-715.5 283,-715.5"/>
<text text-anchor="start" x="289" y="-725.3" font-family="Helvetica,sans-Serif" font-size="14.00">RegistrationDate</text>
</g>
<!-- Bookings -->
<g id="node2" class="node">
<title>Bookings</title>
<polygon fill="white" stroke="transparent" points="582.5,-516 582.5,-705 717.5,-705 717.5,-516 582.5,-516"/>
<polygon fill="#e8453c" stroke="transparent" points="583,-677.5 583,-704.5 718,-704.5 718,-677.5 583,-677.5"/>
<polygon fill="none" stroke="black" points="583,-677.5 583,-704.5 718,-704.5 718,-677.5 583,-677.5"/>
<text text-anchor="start" x="614.5" y="-688.3" font-family="Helvetica,sans-Serif" font-weight="bold" font-size="14.00" fill="white">Bookings</text>
<polygon fill="none" stroke="black" points="583,-650.5 583,-677.5 718,-677.5 718,-650.5 583,-650.5"/>
<text text-anchor="start" x="589" y="-661.3" font-family="Helvetica,sans-Serif" font-weight="bold" font-size="14.00">BookingID</text>
<text text-anchor="start" x="669" y="-661.3" font-family="Helvetica,sans-Serif" font-size="14.00"> &#160;PK</text>
<polygon fill="none" stroke="black" points="583,-623.5 583,-650.5 718,-650.5 718,-623.5 583,-623.5"/>
<text text-anchor="start" x="589" y="-633.3" font-family="Helvetica,sans-Serif" font-size="14.00">UserID &#160;FK</text>
<polygon fill="none" stroke="black" points="583,-596.5 583,-623.5 718,-623.5 718,-596.5 583,-596.5"/>
<text text-anchor="start" x="589" y="-606.3" font-family="Helvetica,sans-Serif" font-size="14.00">BookingDateTime</text>
<polygon fill="none" stroke="black" points="583,-569.5 583,-596.5 718,-596.5 718,-569.5 583,-569.5"/>
<text text-anchor="start" x="589" y="-579.3" font-family="Helvetica,sans-Serif" font-size="14.00">TotalPrice</text>
<polygon fill="none" stroke="black" points="583,-542.5 583,-569.5 718,-569.5 718,-542.5 583,-542.5"/>
<text text-anchor="start" x="589" y="-552.3" font-family="Helvetica,sans-Serif" font-size="14.00">Status</text>
<polygon fill="none" stroke="black" points="583,-515.5 583,-542.5 718,-542.5 718,-515.5 583,-515.5"/>
<text text-anchor="start" x="589" y="-525.3" font-family="Helvetica,sans-Serif" font-size="14.00">ServiceType</text>
</g>
<!-- Users&#45;&gt;Bookings -->
<g id="edge1" class="edge">
<title>Users&#45;&gt;Bookings</title>
<path fill="none" stroke="#6b7a8c" stroke-width="1.3" d="M459,-725.83C493.81,-704.7 532.89,-680.98 566.52,-660.57"/>
<polygon fill="#6b7a8c" stroke="#6b7a8c" stroke-width="1.3" points="454.16,-734.03 449.49,-726.34 451.03,-725.41 455.7,-733.1 454.16,-734.03"/>
<polyline fill="none" stroke="#6b7a8c" stroke-width="1.3" points="451.06,-730.65 454.9,-728.32 "/>
<polygon fill="#6b7a8c" stroke="#6b7a8c" stroke-width="1.3" points="458.01,-731.7 453.34,-724.01 454.88,-723.07 459.55,-730.76 458.01,-731.7"/>
<polyline fill="none" stroke="#6b7a8c" stroke-width="1.3" points="454.9,-728.32 458.75,-725.98 "/>
<polygon fill="#6b7a8c" stroke="#6b7a8c" stroke-width="1.3" points="566.8,-660.39 576.6,-659.19 570.65,-658.06 574.5,-655.72 574.5,-655.72 574.5,-655.72 570.65,-658.06 572.4,-652.26 566.8,-660.39 566.8,-660.39"/>
<text text-anchor="middle" x="497.42" y="-684.8" font-family="Helvetica,sans-Serif" font-size="10.00" fill="#5a6672">places</text>
<text text-anchor="middle" x="570.5" y="-647.72" font-family="Helvetica,sans-Serif" font-size="10.00" fill="#5a6672">N</text>
<text text-anchor="middle" x="454.56" y="-722.65" font-family="Helvetica,sans-Serif" font-size="10.00" fill="#5a6672">1</text>
</g>
<!-- Reviews -->
<g id="node15" class="node">
<title>Reviews</title>
<polygon fill="white" stroke="transparent" points="865,-895 865,-1030 1089,-1030 1089,-895 865,-895"/>
<polygon fill="#e8a33d" stroke="transparent" points="865,-1002.5 865,-1029.5 1089,-1029.5 1089,-1002.5 865,-1002.5"/>
<polygon fill="none" stroke="black" points="865,-1002.5 865,-1029.5 1089,-1029.5 1089,-1002.5 865,-1002.5"/>
<text text-anchor="start" x="944.5" y="-1013.3" font-family="Helvetica,sans-Serif" font-weight="bold" font-size="14.00" fill="white">Reviews</text>
<polygon fill="none" stroke="black" points="865,-975.5 865,-1002.5 1089,-1002.5 1089,-975.5 865,-975.5"/>
<text text-anchor="start" x="871" y="-986.3" font-family="Helvetica,sans-Serif" font-weight="bold" font-size="14.00">ReviewID</text>
<text text-anchor="start" x="944" y="-986.3" font-family="Helvetica,sans-Serif" font-size="14.00"> &#160;PK</text>
<polygon fill="none" stroke="black" points="865,-948.5 865,-975.5 1089,-975.5 1089,-948.5 865,-948.5"/>
<text text-anchor="start" x="871" y="-958.3" font-family="Helvetica,sans-Serif" font-size="14.00">BookingID &#160;FK</text>
<polygon fill="none" stroke="black" points="865,-921.5 865,-948.5 1089,-948.5 1089,-921.5 865,-921.5"/>
<text text-anchor="start" x="871" y="-931.3" font-family="Helvetica,sans-Serif" font-size="14.00">UserID &#160;FK</text>
<polygon fill="none" stroke="black" points="865,-894.5 865,-921.5 1089,-921.5 1089,-894.5 865,-894.5"/>
<text text-anchor="start" x="871" y="-904.3" font-family="Helvetica,sans-Serif" font-size="14.00">Rating, Comment, ReviewDate</text>
</g>
<!-- Users&#45;&gt;Reviews -->
<g id="edge2" class="edge">
<title>Users&#45;&gt;Reviews</title>
<path fill="none" stroke="#6b7a8c" stroke-width="1.3" d="M450.78,-860.68C474.96,-878.44 502.24,-895.37 530,-906.5 631.82,-947.32 756.29,-960.2 847.84,-963.51"/>
<polygon fill="#6b7a8c" stroke="#6b7a8c" stroke-width="1.3" points="441.41,-859.28 446.8,-852.08 448.24,-853.16 442.85,-860.36 441.41,-859.28"/>
<polyline fill="none" stroke="#6b7a8c" stroke-width="1.3" points="443.38,-855.14 446.99,-857.84 "/>
<polygon fill="#6b7a8c" stroke="#6b7a8c" stroke-width="1.3" points="445.01,-861.98 450.4,-854.77 451.84,-855.85 446.45,-863.06 445.01,-861.98"/>
<polyline fill="none" stroke="#6b7a8c" stroke-width="1.3" points="446.99,-857.84 450.59,-860.53 "/>
<polygon fill="#6b7a8c" stroke="#6b7a8c" stroke-width="1.3" points="847.88,-963.51 856.74,-967.86 852.38,-963.66 856.88,-963.81 856.88,-963.81 856.88,-963.81 852.38,-963.66 857.01,-959.76 847.88,-963.51 847.88,-963.51"/>
<text text-anchor="middle" x="628.52" y="-932.13" font-family="Helvetica,sans-Serif" font-size="10.00" fill="#5a6672">writes</text>
</g>
<!-- FlightBookings -->
<g id="node8" class="node">
<title>FlightBookings</title>
<polygon fill="white" stroke="transparent" points="895,-1253 895,-1388 1059,-1388 1059,-1253 895,-1253"/>
<polygon fill="#1f9c8c" stroke="transparent" points="895,-1360.5 895,-1387.5 1059,-1387.5 1059,-1360.5 895,-1360.5"/>
<polygon fill="none" stroke="black" points="895,-1360.5 895,-1387.5 1059,-1387.5 1059,-1360.5 895,-1360.5"/>
<text text-anchor="start" x="918.5" y="-1371.3" font-family="Helvetica,sans-Serif" font-weight="bold" font-size="14.00" fill="white">FlightBookings</text>
<polygon fill="none" stroke="black" points="895,-1333.5 895,-1360.5 1059,-1360.5 1059,-1333.5 895,-1333.5"/>
<text text-anchor="start" x="901" y="-1344.3" font-family="Helvetica,sans-Serif" font-weight="bold" font-size="14.00">FlightBookingID</text>
<text text-anchor="start" x="1026" y="-1344.3" font-family="Helvetica,sans-Serif" font-size="14.00"> &#160;PK</text>
<polygon fill="none" stroke="black" points="895,-1306.5 895,-1333.5 1059,-1333.5 1059,-1306.5 895,-1306.5"/>
<text text-anchor="start" x="901" y="-1316.3" font-family="Helvetica,sans-Serif" font-size="14.00">BookingID &#160;FK</text>
<polygon fill="none" stroke="black" points="895,-1279.5 895,-1306.5 1059,-1306.5 1059,-1279.5 895,-1279.5"/>
<text text-anchor="start" x="901" y="-1289.3" font-family="Helvetica,sans-Serif" font-size="14.00">FlightID &#160;FK</text>
<polygon fill="none" stroke="black" points="895,-1252.5 895,-1279.5 1059,-1279.5 1059,-1252.5 895,-1252.5"/>
<text text-anchor="start" x="901" y="-1262.3" font-family="Helvetica,sans-Serif" font-size="14.00">Passengers</text>
</g>
<!-- Bookings&#45;&gt;FlightBookings -->
<g id="edge6" class="edge">
<title>Bookings&#45;&gt;FlightBookings</title>
<path fill="none" stroke="#6b7a8c" stroke-width="1.3" d="M731.9,-675.79C746.65,-691.27 760.38,-708.78 770,-727.5 873.63,-929.17 729.04,-1039.1 849,-1231.5 857.1,-1244.49 867.86,-1256.09 879.71,-1266.3"/>
<polygon fill="#6b7a8c" stroke="#6b7a8c" stroke-width="1.3" points="722.94,-673.07 729.37,-666.77 730.63,-668.06 724.2,-674.35 722.94,-673.07"/>
<polyline fill="none" stroke="#6b7a8c" stroke-width="1.3" points="725.53,-669.28 728.67,-672.49 "/>
<polygon fill="#6b7a8c" stroke="#6b7a8c" stroke-width="1.3" points="726.09,-676.28 732.52,-669.99 733.78,-671.27 727.35,-677.57 726.09,-676.28"/>
<polyline fill="none" stroke="#6b7a8c" stroke-width="1.3" points="728.67,-672.49 731.82,-675.71 "/>
<polygon fill="#6b7a8c" stroke="#6b7a8c" stroke-width="1.3" points="888.96,-1268.09 883.24,-1275.04 881.85,-1273.89 887.57,-1266.95 888.96,-1268.09"/>
<polyline fill="none" stroke="#6b7a8c" stroke-width="1.3" points="886.79,-1272.14 883.32,-1269.28 "/>
<polygon fill="#6b7a8c" stroke="#6b7a8c" stroke-width="1.3" points="885.49,-1265.23 879.76,-1272.18 878.38,-1271.03 884.1,-1264.09 885.49,-1265.23"/>
<polyline fill="none" stroke="#6b7a8c" stroke-width="1.3" points="883.32,-1269.28 879.85,-1266.41 "/>
</g>
<!-- HotelBookings -->
<g id="node9" class="node">
<title>HotelBookings</title>
<polygon fill="white" stroke="transparent" points="896,-1074 896,-1209 1058,-1209 1058,-1074 896,-1074"/>
<polygon fill="#1f9c8c" stroke="transparent" points="896,-1181.5 896,-1208.5 1058,-1208.5 1058,-1181.5 896,-1181.5"/>
<polygon fill="none" stroke="black" points="896,-1181.5 896,-1208.5 1058,-1208.5 1058,-1181.5 896,-1181.5"/>
<text text-anchor="start" x="919.5" y="-1192.3" font-family="Helvetica,sans-Serif" font-weight="bold" font-size="14.00" fill="white">HotelBookings</text>
<polygon fill="none" stroke="black" points="896,-1154.5 896,-1181.5 1058,-1181.5 1058,-1154.5 896,-1154.5"/>
<text text-anchor="start" x="902" y="-1165.3" font-family="Helvetica,sans-Serif" font-weight="bold" font-size="14.00">HotelBookingID</text>
<text text-anchor="start" x="1025" y="-1165.3" font-family="Helvetica,sans-Serif" font-size="14.00"> &#160;PK</text>
<polygon fill="none" stroke="black" points="896,-1127.5 896,-1154.5 1058,-1154.5 1058,-1127.5 896,-1127.5"/>
<text text-anchor="start" x="902" y="-1137.3" font-family="Helvetica,sans-Serif" font-size="14.00">BookingID &#160;FK</text>
<polygon fill="none" stroke="black" points="896,-1100.5 896,-1127.5 1058,-1127.5 1058,-1100.5 896,-1100.5"/>
<text text-anchor="start" x="902" y="-1110.3" font-family="Helvetica,sans-Serif" font-size="14.00">HotelID &#160;FK</text>
<polygon fill="none" stroke="black" points="896,-1073.5 896,-1100.5 1058,-1100.5 1058,-1073.5 896,-1073.5"/>
<text text-anchor="start" x="902" y="-1083.3" font-family="Helvetica,sans-Serif" font-size="14.00">NumberOfRooms</text>
</g>
<!-- Bookings&#45;&gt;HotelBookings -->
<g id="edge7" class="edge">
<title>Bookings&#45;&gt;HotelBookings</title>
<path fill="none" stroke="#6b7a8c" stroke-width="1.3" d="M732.17,-677.95C746.46,-693.01 759.96,-709.8 770,-727.5 843.37,-856.78 765.19,-929.73 849,-1052.5 857.63,-1065.14 868.69,-1076.55 880.67,-1086.67"/>
<polygon fill="#6b7a8c" stroke="#6b7a8c" stroke-width="1.3" points="722.96,-674.94 729.41,-668.66 730.67,-669.95 724.22,-676.23 722.96,-674.94"/>
<polyline fill="none" stroke="#6b7a8c" stroke-width="1.3" points="725.56,-671.16 728.7,-674.38 "/>
<polygon fill="#6b7a8c" stroke="#6b7a8c" stroke-width="1.3" points="726.1,-678.17 732.55,-671.89 733.81,-673.18 727.36,-679.46 726.1,-678.17"/>
<polyline fill="none" stroke="#6b7a8c" stroke-width="1.3" points="728.7,-674.38 731.84,-677.61 "/>
<polygon fill="#6b7a8c" stroke="#6b7a8c" stroke-width="1.3" points="889.96,-1088.41 884.29,-1095.39 882.89,-1094.26 888.56,-1087.27 889.96,-1088.41"/>
<polyline fill="none" stroke="#6b7a8c" stroke-width="1.3" points="887.82,-1092.47 884.33,-1089.63 "/>
<polygon fill="#6b7a8c" stroke="#6b7a8c" stroke-width="1.3" points="886.46,-1085.57 880.79,-1092.56 879.4,-1091.43 885.07,-1084.44 886.46,-1085.57"/>
<polyline fill="none" stroke="#6b7a8c" stroke-width="1.3" points="884.33,-1089.63 880.83,-1086.8 "/>
</g>
<!-- BusBookings -->
<g id="node10" class="node">
<title>BusBookings</title>
<polygon fill="white" stroke="transparent" points="903,-716 903,-851 1051,-851 1051,-716 903,-716"/>
<polygon fill="#1f9c8c" stroke="transparent" points="903,-823.5 903,-850.5 1051,-850.5 1051,-823.5 903,-823.5"/>
<polygon fill="none" stroke="black" points="903,-823.5 903,-850.5 1051,-850.5 1051,-823.5 903,-823.5"/>
<text text-anchor="start" x="927" y="-834.3" font-family="Helvetica,sans-Serif" font-weight="bold" font-size="14.00" fill="white">BusBookings</text>
<polygon fill="none" stroke="black" points="903,-796.5 903,-823.5 1051,-823.5 1051,-796.5 903,-796.5"/>
<text text-anchor="start" x="909" y="-807.3" font-family="Helvetica,sans-Serif" font-weight="bold" font-size="14.00">BusBookingID</text>
<text text-anchor="start" x="1018" y="-807.3" font-family="Helvetica,sans-Serif" font-size="14.00"> &#160;PK</text>
<polygon fill="none" stroke="black" points="903,-769.5 903,-796.5 1051,-796.5 1051,-769.5 903,-769.5"/>
<text text-anchor="start" x="909" y="-779.3" font-family="Helvetica,sans-Serif" font-size="14.00">BookingID &#160;FK</text>
<polygon fill="none" stroke="black" points="903,-742.5 903,-769.5 1051,-769.5 1051,-742.5 903,-742.5"/>
<text text-anchor="start" x="909" y="-752.3" font-family="Helvetica,sans-Serif" font-size="14.00">BusID &#160;FK</text>
<polygon fill="none" stroke="black" points="903,-715.5 903,-742.5 1051,-742.5 1051,-715.5 903,-715.5"/>
<text text-anchor="start" x="909" y="-725.3" font-family="Helvetica,sans-Serif" font-size="14.00">Passengers</text>
</g>
<!-- Bookings&#45;&gt;BusBookings -->
<g id="edge8" class="edge">
<title>Bookings&#45;&gt;BusBookings</title>
<path fill="none" stroke="#6b7a8c" stroke-width="1.3" d="M733.7,-654.52C780.47,-679.42 838.97,-710.56 886.77,-736"/>
<polygon fill="#6b7a8c" stroke="#6b7a8c" stroke-width="1.3" points="724.24,-654.58 728.47,-646.64 730.06,-647.49 725.83,-655.43 724.24,-654.58"/>
<polyline fill="none" stroke="#6b7a8c" stroke-width="1.3" points="725.56,-650.19 729.53,-652.3 "/>
<polygon fill="#6b7a8c" stroke="#6b7a8c" stroke-width="1.3" points="728.21,-656.7 732.44,-648.75 734.03,-649.6 729.8,-657.55 728.21,-656.7"/>
<polyline fill="none" stroke="#6b7a8c" stroke-width="1.3" points="729.53,-652.3 733.51,-654.42 "/>
<polygon fill="#6b7a8c" stroke="#6b7a8c" stroke-width="1.3" points="896.27,-735.96 892.05,-743.91 890.46,-743.06 894.69,-735.12 896.27,-735.96"/>
<polyline fill="none" stroke="#6b7a8c" stroke-width="1.3" points="894.95,-740.36 890.98,-738.24 "/>
<polygon fill="#6b7a8c" stroke="#6b7a8c" stroke-width="1.3" points="892.3,-733.85 888.07,-741.79 886.48,-740.95 890.71,-733 892.3,-733.85"/>
<polyline fill="none" stroke="#6b7a8c" stroke-width="1.3" points="890.98,-738.24 887.01,-736.13 "/>
</g>
<!-- TrainBookings -->
<g id="node11" class="node">
<title>TrainBookings</title>
<polygon fill="white" stroke="transparent" points="898,-179 898,-314 1056,-314 1056,-179 898,-179"/>
<polygon fill="#1f9c8c" stroke="transparent" points="898,-286.5 898,-313.5 1056,-313.5 1056,-286.5 898,-286.5"/>
<polygon fill="none" stroke="black" points="898,-286.5 898,-313.5 1056,-313.5 1056,-286.5 898,-286.5"/>
<text text-anchor="start" x="921.5" y="-297.3" font-family="Helvetica,sans-Serif" font-weight="bold" font-size="14.00" fill="white">TrainBookings</text>
<polygon fill="none" stroke="black" points="898,-259.5 898,-286.5 1056,-286.5 1056,-259.5 898,-259.5"/>
<text text-anchor="start" x="904" y="-270.3" font-family="Helvetica,sans-Serif" font-weight="bold" font-size="14.00">TrainBookingID</text>
<text text-anchor="start" x="1023" y="-270.3" font-family="Helvetica,sans-Serif" font-size="14.00"> &#160;PK</text>
<polygon fill="none" stroke="black" points="898,-232.5 898,-259.5 1056,-259.5 1056,-232.5 898,-232.5"/>
<text text-anchor="start" x="904" y="-242.3" font-family="Helvetica,sans-Serif" font-size="14.00">BookingID &#160;FK</text>
<polygon fill="none" stroke="black" points="898,-205.5 898,-232.5 1056,-232.5 1056,-205.5 898,-205.5"/>
<text text-anchor="start" x="904" y="-215.3" font-family="Helvetica,sans-Serif" font-size="14.00">TrainID &#160;FK</text>
<polygon fill="none" stroke="black" points="898,-178.5 898,-205.5 1056,-205.5 1056,-178.5 898,-178.5"/>
<text text-anchor="start" x="904" y="-188.3" font-family="Helvetica,sans-Serif" font-size="14.00">Passengers</text>
</g>
<!-- Bookings&#45;&gt;TrainBookings -->
<g id="edge9" class="edge">
<title>Bookings&#45;&gt;TrainBookings</title>
<path fill="none" stroke="#6b7a8c" stroke-width="1.3" d="M715.38,-504.17C750.93,-450.25 798.12,-385.73 849,-335.5 859.23,-325.4 870.73,-315.63 882.51,-306.51"/>
<polygon fill="#6b7a8c" stroke="#6b7a8c" stroke-width="1.3" points="714.7,-513.42 707.18,-508.48 708.16,-506.98 715.69,-511.91 714.7,-513.42"/>
<polyline fill="none" stroke="#6b7a8c" stroke-width="1.3" points="710.45,-511.7 712.91,-507.94 "/>
<polygon fill="#6b7a8c" stroke="#6b7a8c" stroke-width="1.3" points="717.17,-509.65 709.64,-504.72 710.63,-503.21 718.16,-508.15 717.17,-509.65"/>
<polyline fill="none" stroke="#6b7a8c" stroke-width="1.3" points="712.91,-507.94 715.38,-504.17 "/>
<polygon fill="#6b7a8c" stroke="#6b7a8c" stroke-width="1.3" points="886.43,-297.88 891.87,-305.04 890.44,-306.13 885,-298.97 886.43,-297.88"/>
<polyline fill="none" stroke="#6b7a8c" stroke-width="1.3" points="889.87,-300.92 886.29,-303.64 "/>
<polygon fill="#6b7a8c" stroke="#6b7a8c" stroke-width="1.3" points="882.85,-300.6 888.29,-307.77 886.86,-308.86 881.41,-301.69 882.85,-300.6"/>
<polyline fill="none" stroke="#6b7a8c" stroke-width="1.3" points="886.29,-303.64 882.7,-306.36 "/>
</g>
<!-- CarRentalBookings -->
<g id="node12" class="node">
<title>CarRentalBookings</title>
<polygon fill="white" stroke="transparent" points="878.5,-23.5 878.5,-131.5 1075.5,-131.5 1075.5,-23.5 878.5,-23.5"/>
<polygon fill="#1f9c8c" stroke="transparent" points="879,-104.5 879,-131.5 1076,-131.5 1076,-104.5 879,-104.5"/>
<polygon fill="none" stroke="black" points="879,-104.5 879,-131.5 1076,-131.5 1076,-104.5 879,-104.5"/>
<text text-anchor="start" x="902.5" y="-115.3" font-family="Helvetica,sans-Serif" font-weight="bold" font-size="14.00" fill="white">CarRentalBookings</text>
<polygon fill="none" stroke="black" points="879,-77.5 879,-104.5 1076,-104.5 1076,-77.5 879,-77.5"/>
<text text-anchor="start" x="885" y="-88.3" font-family="Helvetica,sans-Serif" font-weight="bold" font-size="14.00">CarRentalBookingID</text>
<text text-anchor="start" x="1043" y="-88.3" font-family="Helvetica,sans-Serif" font-size="14.00"> &#160;PK</text>
<polygon fill="none" stroke="black" points="879,-50.5 879,-77.5 1076,-77.5 1076,-50.5 879,-50.5"/>
<text text-anchor="start" x="885" y="-60.3" font-family="Helvetica,sans-Serif" font-size="14.00">BookingID &#160;FK</text>
<polygon fill="none" stroke="black" points="879,-23.5 879,-50.5 1076,-50.5 1076,-23.5 879,-23.5"/>
<text text-anchor="start" x="885" y="-33.3" font-family="Helvetica,sans-Serif" font-size="14.00">CarRentalID &#160;FK</text>
</g>
<!-- Bookings&#45;&gt;CarRentalBookings -->
<g id="edge10" class="edge">
<title>Bookings&#45;&gt;CarRentalBookings</title>
<path fill="none" stroke="#6b7a8c" stroke-width="1.3" d="M698.28,-503.24C720.18,-453.47 746.49,-393.5 770,-339.5 805.36,-258.28 791.19,-223.63 849,-156.5 853.53,-151.24 858.49,-146.22 863.76,-141.45"/>
<polygon fill="#6b7a8c" stroke="#6b7a8c" stroke-width="1.3" points="699.01,-512.76 690.77,-509.14 691.5,-507.49 699.74,-511.11 699.01,-512.76"/>
<polyline fill="none" stroke="#6b7a8c" stroke-width="1.3" points="694.53,-511.77 696.34,-507.65 "/>
<polygon fill="#6b7a8c" stroke="#6b7a8c" stroke-width="1.3" points="700.82,-508.64 692.58,-505.02 693.31,-503.37 701.55,-506.99 700.82,-508.64"/>
<polyline fill="none" stroke="#6b7a8c" stroke-width="1.3" points="696.34,-507.65 698.15,-503.53 "/>
<polygon fill="#6b7a8c" stroke="#6b7a8c" stroke-width="1.3" points="866.94,-132.72 872.84,-139.52 871.48,-140.7 865.58,-133.9 866.94,-132.72"/>
<polyline fill="none" stroke="#6b7a8c" stroke-width="1.3" points="870.57,-135.53 867.17,-138.48 "/>
<polygon fill="#6b7a8c" stroke="#6b7a8c" stroke-width="1.3" points="863.54,-135.67 869.44,-142.47 868.09,-143.65 862.18,-136.85 863.54,-135.67"/>
<polyline fill="none" stroke="#6b7a8c" stroke-width="1.3" points="867.17,-138.48 863.78,-141.43 "/>
</g>
<!-- Payments -->
<g id="node13" class="node">
<title>Payments</title>
<polygon fill="white" stroke="transparent" points="874.5,-537 874.5,-672 1079.5,-672 1079.5,-537 874.5,-537"/>
<polygon fill="#e8a33d" stroke="transparent" points="875,-644.5 875,-671.5 1080,-671.5 1080,-644.5 875,-644.5"/>
<polygon fill="none" stroke="black" points="875,-644.5 875,-671.5 1080,-671.5 1080,-644.5 875,-644.5"/>
<text text-anchor="start" x="939" y="-655.3" font-family="Helvetica,sans-Serif" font-weight="bold" font-size="14.00" fill="white">Payments</text>
<polygon fill="none" stroke="black" points="875,-617.5 875,-644.5 1080,-644.5 1080,-617.5 875,-617.5"/>
<text text-anchor="start" x="881" y="-628.3" font-family="Helvetica,sans-Serif" font-weight="bold" font-size="14.00">PaymentID</text>
<text text-anchor="start" x="966" y="-628.3" font-family="Helvetica,sans-Serif" font-size="14.00"> &#160;PK</text>
<polygon fill="none" stroke="black" points="875,-590.5 875,-617.5 1080,-617.5 1080,-590.5 875,-590.5"/>
<text text-anchor="start" x="881" y="-600.3" font-family="Helvetica,sans-Serif" font-size="14.00">BookingID &#160;FK</text>
<polygon fill="none" stroke="black" points="875,-563.5 875,-590.5 1080,-590.5 1080,-563.5 875,-563.5"/>
<text text-anchor="start" x="881" y="-573.3" font-family="Helvetica,sans-Serif" font-size="14.00">PaymentType, PaymentDate</text>
<polygon fill="none" stroke="black" points="875,-536.5 875,-563.5 1080,-563.5 1080,-536.5 875,-536.5"/>
<text text-anchor="start" x="881" y="-546.3" font-family="Helvetica,sans-Serif" font-size="14.00">PaymentAmount</text>
</g>
<!-- Bookings&#45;&gt;Payments -->
<g id="edge3" class="edge">
<title>Bookings&#45;&gt;Payments</title>
<path fill="none" stroke="#6b7a8c" stroke-width="1.3" d="M734.77,-608.95C772.03,-608.27 816.58,-607.44 857.19,-606.69"/>
<polygon fill="#6b7a8c" stroke="#6b7a8c" stroke-width="1.3" points="726.54,-613.61 726.38,-604.61 728.18,-604.57 728.34,-613.57 726.54,-613.61"/>
<polyline fill="none" stroke="#6b7a8c" stroke-width="1.3" points="725.56,-609.12 730.06,-609.04 "/>
<polygon fill="#6b7a8c" stroke="#6b7a8c" stroke-width="1.3" points="731.04,-613.52 730.88,-604.52 732.68,-604.49 732.84,-613.49 731.04,-613.52"/>
<polyline fill="none" stroke="#6b7a8c" stroke-width="1.3" points="730.06,-609.04 734.56,-608.96 "/>
<polygon fill="#6b7a8c" stroke="#6b7a8c" stroke-width="1.3" points="865.35,-602.04 865.52,-611.04 863.72,-611.07 863.55,-602.08 865.35,-602.04"/>
<polyline fill="none" stroke="#6b7a8c" stroke-width="1.3" points="866.34,-606.52 861.84,-606.61 "/>
<polygon fill="#6b7a8c" stroke="#6b7a8c" stroke-width="1.3" points="860.85,-602.13 861.02,-611.12 859.22,-611.16 859.05,-602.16 860.85,-602.13"/>
<polyline fill="none" stroke="#6b7a8c" stroke-width="1.3" points="861.84,-606.61 857.34,-606.69 "/>
<text text-anchor="middle" x="776.1" y="-599.85" font-family="Helvetica,sans-Serif" font-size="10.00" fill="#5a6672">paid by</text>
</g>
<!-- DiscountCoupons -->
<g id="node14" class="node">
<title>DiscountCoupons</title>
<polygon fill="white" stroke="transparent" points="857,-358 857,-493 1097,-493 1097,-358 857,-358"/>
<polygon fill="#e8a33d" stroke="transparent" points="857,-465.5 857,-492.5 1097,-492.5 1097,-465.5 857,-465.5"/>
<polygon fill="none" stroke="black" points="857,-465.5 857,-492.5 1097,-492.5 1097,-465.5 857,-465.5"/>
<text text-anchor="start" x="909" y="-476.3" font-family="Helvetica,sans-Serif" font-weight="bold" font-size="14.00" fill="white">DiscountCoupons</text>
<polygon fill="none" stroke="black" points="857,-438.5 857,-465.5 1097,-465.5 1097,-438.5 857,-438.5"/>
<text text-anchor="start" x="863" y="-449.3" font-family="Helvetica,sans-Serif" font-weight="bold" font-size="14.00">CouponID</text>
<text text-anchor="start" x="939" y="-449.3" font-family="Helvetica,sans-Serif" font-size="14.00"> &#160;PK</text>
<polygon fill="none" stroke="black" points="857,-411.5 857,-438.5 1097,-438.5 1097,-411.5 857,-411.5"/>
<text text-anchor="start" x="863" y="-421.3" font-family="Helvetica,sans-Serif" font-size="14.00">BookingID &#160;FK</text>
<polygon fill="none" stroke="black" points="857,-384.5 857,-411.5 1097,-411.5 1097,-384.5 857,-384.5"/>
<text text-anchor="start" x="863" y="-394.3" font-family="Helvetica,sans-Serif" font-size="14.00">Code, DiscountPercent</text>
<polygon fill="none" stroke="black" points="857,-357.5 857,-384.5 1097,-384.5 1097,-357.5 857,-357.5"/>
<text text-anchor="start" x="863" y="-367.3" font-family="Helvetica,sans-Serif" font-size="14.00">MinimumOrderValue, ExpiryDate</text>
</g>
<!-- Bookings&#45;&gt;DiscountCoupons -->
<g id="edge4" class="edge">
<title>Bookings&#45;&gt;DiscountCoupons</title>
<path fill="none" stroke="#6b7a8c" stroke-width="1.3" d="M733.47,-563.55C766.52,-544.74 805.46,-522.58 842.34,-501.58"/>
<polygon fill="#6b7a8c" stroke="#6b7a8c" stroke-width="1.3" points="728.57,-571.52 724.12,-563.7 725.68,-562.81 730.13,-570.63 728.57,-571.52"/>
<polyline fill="none" stroke="#6b7a8c" stroke-width="1.3" points="725.56,-568.06 729.47,-565.83 "/>
<polygon fill="#6b7a8c" stroke="#6b7a8c" stroke-width="1.3" points="732.48,-569.3 728.03,-561.48 729.59,-560.58 734.05,-568.41 732.48,-569.3"/>
<polyline fill="none" stroke="#6b7a8c" stroke-width="1.3" points="729.47,-565.83 733.38,-563.6 "/>
<polygon fill="#6b7a8c" stroke="#6b7a8c" stroke-width="1.3" points="842.36,-501.57 852.18,-500.64 846.27,-499.35 850.18,-497.12 850.18,-497.12 850.18,-497.12 846.27,-499.35 848.18,-493.6 842.36,-501.57 842.36,-501.57"/>
<text text-anchor="middle" x="759.36" y="-525.45" font-family="Helvetica,sans-Serif" font-size="10.00" fill="#5a6672">discounted</text>
</g>
<!-- Bookings&#45;&gt;Reviews -->
<g id="edge5" class="edge">
<title>Bookings&#45;&gt;Reviews</title>
<path fill="none" stroke="#6b7a8c" stroke-width="1.3" d="M732.31,-683.92C745.66,-697.75 758.77,-712.58 770,-727.5 814.35,-786.46 799.92,-818.41 849,-873.5 852.36,-877.27 855.91,-880.96 859.6,-884.57"/>
<polygon fill="#6b7a8c" stroke="#6b7a8c" stroke-width="1.3" points="723.17,-681.01 729.6,-674.71 730.86,-676 724.43,-682.29 723.17,-681.01"/>
<polyline fill="none" stroke="#6b7a8c" stroke-width="1.3" points="725.75,-677.22 728.9,-680.43 "/>
<polygon fill="#6b7a8c" stroke="#6b7a8c" stroke-width="1.3" points="726.31,-684.22 732.75,-677.93 734.01,-679.21 727.57,-685.51 726.31,-684.22"/>
<polyline fill="none" stroke="#6b7a8c" stroke-width="1.3" points="728.9,-680.43 732.05,-683.65 "/>
<polygon fill="#6b7a8c" stroke="#6b7a8c" stroke-width="1.3" points="859.84,-884.8 863.61,-893.93 863.11,-887.89 866.39,-890.98 866.39,-890.98 866.39,-890.98 863.11,-887.89 869.17,-888.04 859.84,-884.8 859.84,-884.8"/>
<text text-anchor="middle" x="823.51" y="-774.39" font-family="Helvetica,sans-Serif" font-size="10.00" fill="#5a6672">reviewed</text>
</g>
<!-- Flights -->
<g id="node3" class="node">
<title>Flights</title>
<polygon fill="white" stroke="transparent" points="555.5,-1253 555.5,-1388 744.5,-1388 744.5,-1253 555.5,-1253"/>
<polygon fill="#123a5f" stroke="transparent" points="556,-1360.5 556,-1387.5 745,-1387.5 745,-1360.5 556,-1360.5"/>
<polygon fill="none" stroke="black" points="556,-1360.5 556,-1387.5 745,-1387.5 745,-1360.5 556,-1360.5"/>
<text text-anchor="start" x="623.5" y="-1371.3" font-family="Helvetica,sans-Serif" font-weight="bold" font-size="14.00" fill="white">Flights</text>
<polygon fill="none" stroke="black" points="556,-1333.5 556,-1360.5 745,-1360.5 745,-1333.5 556,-1333.5"/>
<text text-anchor="start" x="562" y="-1344.3" font-family="Helvetica,sans-Serif" font-weight="bold" font-size="14.00">FlightID</text>
<text text-anchor="start" x="624" y="-1344.3" font-family="Helvetica,sans-Serif" font-size="14.00"> &#160;PK</text>
<polygon fill="none" stroke="black" points="556,-1306.5 556,-1333.5 745,-1333.5 745,-1306.5 556,-1306.5"/>
<text text-anchor="start" x="562" y="-1316.3" font-family="Helvetica,sans-Serif" font-size="14.00">Airline</text>
<polygon fill="none" stroke="black" points="556,-1279.5 556,-1306.5 745,-1306.5 745,-1279.5 556,-1279.5"/>
<text text-anchor="start" x="562" y="-1289.3" font-family="Helvetica,sans-Serif" font-size="14.00">Departure / ArrivalAirport</text>
<polygon fill="none" stroke="black" points="556,-1252.5 556,-1279.5 745,-1279.5 745,-1252.5 556,-1252.5"/>
<text text-anchor="start" x="562" y="-1262.3" font-family="Helvetica,sans-Serif" font-size="14.00">Price, AvailableSeats</text>
</g>
<!-- Flights&#45;&gt;FlightBookings -->
<g id="edge11" class="edge">
<title>Flights&#45;&gt;FlightBookings</title>
<path fill="none" stroke="#6b7a8c" stroke-width="1.3" d="M762.08,-1320.5C799.59,-1320.5 841.17,-1320.5 877.62,-1320.5"/>
<polygon fill="#6b7a8c" stroke="#6b7a8c" stroke-width="1.3" points="753.84,-1325 753.84,-1316 755.64,-1316 755.64,-1325 753.84,-1325"/>
<polyline fill="none" stroke="#6b7a8c" stroke-width="1.3" points="752.94,-1320.5 757.44,-1320.5 "/>
<polygon fill="#6b7a8c" stroke="#6b7a8c" stroke-width="1.3" points="758.34,-1325 758.34,-1316 760.14,-1316 760.14,-1325 758.34,-1325"/>
<polyline fill="none" stroke="#6b7a8c" stroke-width="1.3" points="757.44,-1320.5 761.94,-1320.5 "/>
<polygon fill="#6b7a8c" stroke="#6b7a8c" stroke-width="1.3" points="877.77,-1320.5 886.77,-1324.55 882.27,-1320.5 886.77,-1320.5 886.77,-1320.5 886.77,-1320.5 882.27,-1320.5 886.77,-1316.45 877.77,-1320.5 877.77,-1320.5"/>
</g>
<!-- Hotels -->
<g id="node4" class="node">
<title>Hotels</title>
<polygon fill="white" stroke="transparent" points="538,-1087.5 538,-1195.5 762,-1195.5 762,-1087.5 538,-1087.5"/>
<polygon fill="#123a5f" stroke="transparent" points="538,-1168.5 538,-1195.5 762,-1195.5 762,-1168.5 538,-1168.5"/>
<polygon fill="none" stroke="black" points="538,-1168.5 538,-1195.5 762,-1195.5 762,-1168.5 538,-1168.5"/>
<text text-anchor="start" x="624" y="-1179.3" font-family="Helvetica,sans-Serif" font-weight="bold" font-size="14.00" fill="white">Hotels</text>
<polygon fill="none" stroke="black" points="538,-1141.5 538,-1168.5 762,-1168.5 762,-1141.5 538,-1141.5"/>
<text text-anchor="start" x="544" y="-1152.3" font-family="Helvetica,sans-Serif" font-weight="bold" font-size="14.00">HotelID</text>
<text text-anchor="start" x="604" y="-1152.3" font-family="Helvetica,sans-Serif" font-size="14.00"> &#160;PK</text>
<polygon fill="none" stroke="black" points="538,-1114.5 538,-1141.5 762,-1141.5 762,-1114.5 538,-1114.5"/>
<text text-anchor="start" x="544" y="-1124.3" font-family="Helvetica,sans-Serif" font-size="14.00">Name, Location</text>
<polygon fill="none" stroke="black" points="538,-1087.5 538,-1114.5 762,-1114.5 762,-1087.5 538,-1087.5"/>
<text text-anchor="start" x="544" y="-1097.3" font-family="Helvetica,sans-Serif" font-size="14.00">PricePerNight, AvailableRooms</text>
</g>
<!-- Hotels&#45;&gt;HotelBookings -->
<g id="edge12" class="edge">
<title>Hotels&#45;&gt;HotelBookings</title>
<path fill="none" stroke="#6b7a8c" stroke-width="1.3" d="M779.36,-1141.5C812.46,-1141.5 847.54,-1141.5 878.76,-1141.5"/>
<polygon fill="#6b7a8c" stroke="#6b7a8c" stroke-width="1.3" points="771.07,-1146 771.07,-1137 772.87,-1137 772.87,-1146 771.07,-1146"/>
<polyline fill="none" stroke="#6b7a8c" stroke-width="1.3" points="770.17,-1141.5 774.67,-1141.5 "/>
<polygon fill="#6b7a8c" stroke="#6b7a8c" stroke-width="1.3" points="775.57,-1146 775.57,-1137 777.37,-1137 777.37,-1146 775.57,-1146"/>
<polyline fill="none" stroke="#6b7a8c" stroke-width="1.3" points="774.67,-1141.5 779.17,-1141.5 "/>
<polygon fill="#6b7a8c" stroke="#6b7a8c" stroke-width="1.3" points="878.89,-1141.5 887.89,-1145.55 883.39,-1141.5 887.89,-1141.5 887.89,-1141.5 887.89,-1141.5 883.39,-1141.5 887.89,-1137.45 878.89,-1141.5 878.89,-1141.5"/>
</g>
<!-- Buses -->
<g id="node5" class="node">
<title>Buses</title>
<polygon fill="white" stroke="transparent" points="550.5,-749 550.5,-884 749.5,-884 749.5,-749 550.5,-749"/>
<polygon fill="#123a5f" stroke="transparent" points="551,-856.5 551,-883.5 750,-883.5 750,-856.5 551,-856.5"/>
<polygon fill="none" stroke="black" points="551,-856.5 551,-883.5 750,-883.5 750,-856.5 551,-856.5"/>
<text text-anchor="start" x="627" y="-867.3" font-family="Helvetica,sans-Serif" font-weight="bold" font-size="14.00" fill="white">Buses</text>
<polygon fill="none" stroke="black" points="551,-829.5 551,-856.5 750,-856.5 750,-829.5 551,-829.5"/>
<text text-anchor="start" x="557" y="-840.3" font-family="Helvetica,sans-Serif" font-weight="bold" font-size="14.00">BusID</text>
<text text-anchor="start" x="603" y="-840.3" font-family="Helvetica,sans-Serif" font-size="14.00"> &#160;PK</text>
<polygon fill="none" stroke="black" points="551,-802.5 551,-829.5 750,-829.5 750,-802.5 551,-802.5"/>
<text text-anchor="start" x="557" y="-812.3" font-family="Helvetica,sans-Serif" font-size="14.00">Operator</text>
<polygon fill="none" stroke="black" points="551,-775.5 551,-802.5 750,-802.5 750,-775.5 551,-775.5"/>
<text text-anchor="start" x="557" y="-785.3" font-family="Helvetica,sans-Serif" font-size="14.00">Departure / ArrivalLocation</text>
<polygon fill="none" stroke="black" points="551,-748.5 551,-775.5 750,-775.5 750,-748.5 551,-748.5"/>
<text text-anchor="start" x="557" y="-758.3" font-family="Helvetica,sans-Serif" font-size="14.00">Price, AvailableSeats</text>
</g>
<!-- Buses&#45;&gt;BusBookings -->
<g id="edge13" class="edge">
<title>Buses&#45;&gt;BusBookings</title>
<path fill="none" stroke="#6b7a8c" stroke-width="1.3" d="M766.83,-804.74C805.87,-800.77 848.84,-796.41 885.62,-792.68"/>
<polygon fill="#6b7a8c" stroke="#6b7a8c" stroke-width="1.3" points="759.22,-810.03 758.31,-801.08 760.1,-800.9 761.01,-809.85 759.22,-810.03"/>
<polyline fill="none" stroke="#6b7a8c" stroke-width="1.3" points="757.87,-805.65 762.34,-805.19 "/>
<polygon fill="#6b7a8c" stroke="#6b7a8c" stroke-width="1.3" points="763.69,-809.58 762.79,-800.63 764.58,-800.44 765.49,-809.4 763.69,-809.58"/>
<polyline fill="none" stroke="#6b7a8c" stroke-width="1.3" points="762.34,-805.19 766.82,-804.74 "/>
<polygon fill="#6b7a8c" stroke="#6b7a8c" stroke-width="1.3" points="885.88,-792.65 895.24,-795.77 890.36,-792.2 894.83,-791.74 894.83,-791.74 894.83,-791.74 890.36,-792.2 894.42,-787.71 885.88,-792.65 885.88,-792.65"/>
</g>
<!-- Trains -->
<g id="node6" class="node">
<title>Trains</title>
<polygon fill="white" stroke="transparent" points="555,-183 555,-318 745,-318 745,-183 555,-183"/>
<polygon fill="#123a5f" stroke="transparent" points="555,-290.5 555,-317.5 745,-317.5 745,-290.5 555,-290.5"/>
<polygon fill="none" stroke="black" points="555,-290.5 555,-317.5 745,-317.5 745,-290.5 555,-290.5"/>
<text text-anchor="start" x="626" y="-301.3" font-family="Helvetica,sans-Serif" font-weight="bold" font-size="14.00" fill="white">Trains</text>
<polygon fill="none" stroke="black" points="555,-263.5 555,-290.5 745,-290.5 745,-263.5 555,-263.5"/>
<text text-anchor="start" x="561" y="-274.3" font-family="Helvetica,sans-Serif" font-weight="bold" font-size="14.00">TrainID</text>
<text text-anchor="start" x="617" y="-274.3" font-family="Helvetica,sans-Serif" font-size="14.00"> &#160;PK</text>
<polygon fill="none" stroke="black" points="555,-236.5 555,-263.5 745,-263.5 745,-236.5 555,-236.5"/>
<text text-anchor="start" x="561" y="-246.3" font-family="Helvetica,sans-Serif" font-size="14.00">Operator</text>
<polygon fill="none" stroke="black" points="555,-209.5 555,-236.5 745,-236.5 745,-209.5 555,-209.5"/>
<text text-anchor="start" x="561" y="-219.3" font-family="Helvetica,sans-Serif" font-size="14.00">Departure / ArrivalStation</text>
<polygon fill="none" stroke="black" points="555,-182.5 555,-209.5 745,-209.5 745,-182.5 555,-182.5"/>
<text text-anchor="start" x="561" y="-192.3" font-family="Helvetica,sans-Serif" font-size="14.00">Price, AvailableSeats</text>
</g>
<!-- Trains&#45;&gt;TrainBookings -->
<g id="edge14" class="edge">
<title>Trains&#45;&gt;TrainBookings</title>
<path fill="none" stroke="#6b7a8c" stroke-width="1.3" d="M762.48,-249.13C800.93,-248.65 843.62,-248.13 880.67,-247.67"/>
<polygon fill="#6b7a8c" stroke="#6b7a8c" stroke-width="1.3" points="754.34,-253.73 754.23,-244.73 756.03,-244.71 756.14,-253.71 754.34,-253.73"/>
<polyline fill="none" stroke="#6b7a8c" stroke-width="1.3" points="753.39,-249.24 757.89,-249.18 "/>
<polygon fill="#6b7a8c" stroke="#6b7a8c" stroke-width="1.3" points="758.84,-253.67 758.73,-244.67 760.53,-244.65 760.64,-253.65 758.84,-253.67"/>
<polyline fill="none" stroke="#6b7a8c" stroke-width="1.3" points="757.89,-249.18 762.39,-249.13 "/>
<polygon fill="#6b7a8c" stroke="#6b7a8c" stroke-width="1.3" points="880.96,-247.67 890.01,-251.61 885.46,-247.61 889.96,-247.56 889.96,-247.56 889.96,-247.56 885.46,-247.61 889.91,-243.51 880.96,-247.67 880.96,-247.67"/>
</g>
<!-- CarRentals -->
<g id="node7" class="node">
<title>CarRentals</title>
<polygon fill="white" stroke="transparent" points="558.5,-4 558.5,-139 741.5,-139 741.5,-4 558.5,-4"/>
<polygon fill="#123a5f" stroke="transparent" points="559,-111.5 559,-138.5 742,-138.5 742,-111.5 559,-111.5"/>
<polygon fill="none" stroke="black" points="559,-111.5 559,-138.5 742,-138.5 742,-111.5 559,-111.5"/>
<text text-anchor="start" x="607" y="-122.3" font-family="Helvetica,sans-Serif" font-weight="bold" font-size="14.00" fill="white">CarRentals</text>
<polygon fill="none" stroke="black" points="559,-84.5 559,-111.5 742,-111.5 742,-84.5 559,-84.5"/>
<text text-anchor="start" x="565" y="-95.3" font-family="Helvetica,sans-Serif" font-weight="bold" font-size="14.00">CarRentalID</text>
<text text-anchor="start" x="660" y="-95.3" font-family="Helvetica,sans-Serif" font-size="14.00"> &#160;PK</text>
<polygon fill="none" stroke="black" points="559,-57.5 559,-84.5 742,-84.5 742,-57.5 559,-57.5"/>
<text text-anchor="start" x="565" y="-67.3" font-family="Helvetica,sans-Serif" font-size="14.00">CarType</text>
<polygon fill="none" stroke="black" points="559,-30.5 559,-57.5 742,-57.5 742,-30.5 559,-30.5"/>
<text text-anchor="start" x="565" y="-40.3" font-family="Helvetica,sans-Serif" font-size="14.00">Pickup / DropOffLocation</text>
<polygon fill="none" stroke="black" points="559,-3.5 559,-30.5 742,-30.5 742,-3.5 559,-3.5"/>
<text text-anchor="start" x="565" y="-13.3" font-family="Helvetica,sans-Serif" font-size="14.00">Price</text>
</g>
<!-- CarRentals&#45;&gt;CarRentalBookings -->
<g id="edge15" class="edge">
<title>CarRentals&#45;&gt;CarRentalBookings</title>
<path fill="none" stroke="#6b7a8c" stroke-width="1.3" d="M758.86,-73.49C791.64,-74.1 827.78,-74.76 861.01,-75.38"/>
<polygon fill="#6b7a8c" stroke="#6b7a8c" stroke-width="1.3" points="750.65,-77.84 750.82,-68.84 752.62,-68.88 752.45,-77.87 750.65,-77.84"/>
<polyline fill="none" stroke="#6b7a8c" stroke-width="1.3" points="749.83,-73.32 754.33,-73.41 "/>
<polygon fill="#6b7a8c" stroke="#6b7a8c" stroke-width="1.3" points="755.15,-77.92 755.32,-68.93 757.12,-68.96 756.95,-77.96 755.15,-77.92"/>
<polyline fill="none" stroke="#6b7a8c" stroke-width="1.3" points="754.33,-73.41 758.83,-73.49 "/>
<polygon fill="#6b7a8c" stroke="#6b7a8c" stroke-width="1.3" points="861.3,-75.38 870.22,-79.6 865.8,-75.47 870.3,-75.55 870.3,-75.55 870.3,-75.55 865.8,-75.47 870.37,-71.5 861.3,-75.38 861.3,-75.38"/>
</g>
<!-- legend -->
<g id="node16" class="node">
<title>legend</title>
<polygon fill="#f8f9fb" stroke="transparent" points="8,-718 8,-849 188,-849 188,-718 8,-718"/>
<text text-anchor="start" x="69" y="-830.3" font-family="Helvetica,sans-Serif" font-weight="bold" font-size="14.00">Legend</text>
<polygon fill="#123a5f" stroke="transparent" points="13,-797.5 13,-818.5 31,-818.5 31,-797.5 13,-797.5"/>
<text text-anchor="start" x="38" y="-804.3" font-family="Helvetica,sans-Serif" font-size="14.00">Dimension</text>
<polygon fill="#e8453c" stroke="transparent" points="13,-772.5 13,-793.5 31,-793.5 31,-772.5 13,-772.5"/>
<text text-anchor="start" x="38" y="-779.3" font-family="Helvetica,sans-Serif" font-size="14.00">Core fact (Bookings)</text>
<polygon fill="#1f9c8c" stroke="transparent" points="13,-747.5 13,-768.5 31,-768.5 31,-747.5 13,-747.5"/>
<text text-anchor="start" x="38" y="-754.3" font-family="Helvetica,sans-Serif" font-size="14.00">Bridge</text>
<polygon fill="#e8a33d" stroke="transparent" points="13,-722.5 13,-743.5 31,-743.5 31,-722.5 13,-722.5"/>
<text text-anchor="start" x="38" y="-729.3" font-family="Helvetica,sans-Serif" font-size="14.00">Satellite fact</text>
<polygon fill="none" stroke="black" points="8,-718 8,-849 188,-849 188,-718 8,-718"/>
</g>
</g>
</svg>
